<?xml version="1.0" encoding="utf-8"?>
<!-- Generator: Adobe Illustrator 18.0.0, SVG Export Plug-In . SVG Version: 6.00 Build 0)  -->
<!DOCTYPE svg PUBLIC "-//W3C//DTD SVG 1.1//EN" "http://www.w3.org/Graphics/SVG/1.1/DTD/svg11.dtd">
<svg version="1.1" xmlns="http://www.w3.org/2000/svg" xmlns:xlink="http://www.w3.org/1999/xlink" x="0px" y="0px"
	 viewBox="0 0 416.2 727.5" enable-background="new 0 0 416.2 727.5" xml:space="preserve">
<g id="Capa_1">
</g>
<g id="_x33_" display="none">
</g>
<g id="_x34_">
	<path fill="#12868A" d="M413.1,270.5v-86.2H413c0-0.2,0.1-0.3,0.1-0.5c0-7.9-0.3-31.3-99.5-43.9l-0.2-43.6
		c0.1-1.4,2.5-35.1-21.7-61.3C273.6,15.4,246,5.4,209.8,5.4c-37.5,0-66.1,10.2-84.9,30.2c-24.4,26-22.5,58.7-22.5,59.4V140
		C3.4,152.6,3.1,176,3.1,183.9c0,1.3,0.2,2.6,0.5,3.9v82.8H3.1c0,24.4,46,36.9,94.7,43.3v137.2H87.7v89.6h10.1v181.4h56.3V540.7
		h10.1v-89.6h-10.1V319c26.5,1.5,47.7,1.7,54,1.7c6.6,0,29-0.1,56.7-1.8v132.2h-10.1v89.6h10.1v181.4h56.4V540.7h10.1v-89.6h-10.1
		V313.5c46.3-6.4,89.3-18.4,91.7-41h0.2v-1.8C413.1,270.6,413.1,270.6,413.1,270.5L413.1,270.5z M142.4,51.6
		c14.1-15,36.9-22.5,67.4-22.5c29.2,0,50.8,7.3,64.3,21.8c17.2,18.5,15.7,43.4,15.7,44.6l0.3,66c-13.2,3.6-41.8,10-79.8,10
		c-28.2,0-56.5-3.5-84.2-10.3l0-66.8C126.1,94.1,125,70,142.4,51.6z M102.5,163.1v16.2l8.7,2.4c32.4,8.9,65.7,13.4,99.1,13.4
		c57,0,94.1-13.2,95.7-13.7l7.8-2.8l-0.1-15.5c50.8,6.8,71,16.5,75.7,20.9c-10.2,10.4-75.1,27.2-181.4,27.2
		c-106.3,0-171.1-16.8-181.3-27.2C31.5,179.5,51.7,169.9,102.5,163.1z M148.4,466.8v58.1h-10.1v181.4h-24.9V524.9h-10v-58.1h10
		V315.8c8.5,0.9,16.8,1.6,24.9,2.2v148.8H148.4z M315.5,466.8v58.1h-10v181.4h-24.8V524.9h-10.1v-58.1h10.1v-149
		c8.1-0.6,16.4-1.4,24.8-2.3v151.4H315.5z M208.1,297.8c-108.9,0-174.3-17.6-181.6-26.8v-61.2C76.7,233.1,191.8,234,208.1,234
		c16.4,0,132.1-0.9,182.1-24.4v60C383.4,279.9,317.9,297.8,208.1,297.8z"/>
</g>
</svg>
