<?xml version="1.0" encoding="utf-8"?>
<!-- Generator: Adobe Illustrator 18.0.0, SVG Export Plug-In . SVG Version: 6.00 Build 0)  -->
<!DOCTYPE svg PUBLIC "-//W3C//DTD SVG 1.1//EN" "http://www.w3.org/Graphics/SVG/1.1/DTD/svg11.dtd">
<svg version="1.1" xmlns="http://www.w3.org/2000/svg" xmlns:xlink="http://www.w3.org/1999/xlink" x="0px" y="0px"
	 viewBox="0 0 300 457.8" enable-background="new 0 0 300 457.8" xml:space="preserve">
<g id="Capa_1">
</g>
<g id="_x33_" display="none">
</g>
<g id="_x34_">
	<path fill="#12868A" d="M295,450.2V309.3h-45.2v-24.3L225,264.7v-62.1l-4.8-3.1c-1.4-0.9-2.7-1.6-4.1-2.4
		c8.3-29,38.6-135.8,40-142.7c2.2-11.1-0.6-34.6-27.2-44.1c-12.5-4.5-25.5-3.4-36.6,2.9c-9.2,5.3-15.8,13.7-17.4,22.6
		c-1.8,9.8-23.9,113.8-30.3,143.9c-31.3,2.6-53.3,16.6-54.8,17.6l-4.8,3.1V266l-27,12v31.3H5v140.9H295z M195.6,39.7
		c0.4-2.2,2.8-5.6,7.2-8.1c3.2-1.9,10-4.5,19-1.3c16.3,5.8,13.7,19.5,13.6,20c-1.2,5.5-22.7,81.6-38.5,137.1
		c-10.7-4.2-21-6.5-30.8-7.5C173.5,145.4,193.8,49.5,195.6,39.7z M203.9,214.2v42.6h-97.7v-44.6
		C119.8,205.1,160.2,188.6,203.9,214.2z M79.2,291.7l31-13.8h97.5l20.9,17v14.3H79.2V291.7z M26.1,330.4h247.8v98.7H26.1V330.4z"/>
</g>
</svg>
